<?xml version="1.0" encoding="utf-8"?>
<!DOCTYPE svg PUBLIC "-//W3C//DTD SVG 1.1//EN" "http://www.w3.org/Graphics/SVG/1.1/DTD/svg11.dtd">
<svg version="1.1" id="Layer_1" xmlns="http://www.w3.org/2000/svg" xmlns:xlink="http://www.w3.org/1999/xlink" x="0px" y="0px"
	 viewBox="0 0 1235 1935.6735" enable-background="new 0 0 1235 1935.6735" xml:space="preserve">
<path fill="#FFFFFF" d="M569.41,1065.1067c1.61,1.8101,0.69,3.8301,0.2,5.7001c-3.74,14.1-4.07,14.1699-14.18,4.26
	c-5.27-5.17-10.66-10.2201-16.22-15.54c4.39-2.91,8.39-7.21,13.58-5.91C559.49,1055.2968,564.8,1059.9268,569.41,1065.1067z"/>
<path fill="#FFFFFF" d="M481.19,1115.3567c0.13,2.92-1.07,4.79-4.31,4.79c-3.26,0.01-4.3-1.95-4.4-4.9399
	c0.46-2.52,0.79-5.4701,4.4-5.4301C480.41,1109.8168,481.05,1112.5468,481.19,1115.3567z"/>
<path fill="#FCC429" d="M403.61,750.5867c0,0.03,0,0.06,0,0.1c-0.07,0.41-0.2,0.76-0.4,1.04c0.2-0.28,0.33-0.63,0.39-1.04
	C403.6,750.6567,403.6,750.6168,403.61,750.5867z"/>
<path fill="#FCC429" d="M403.56,750.1367c-0.01-0.08-0.03-0.15-0.06-0.21C403.53,749.9968,403.55,750.0667,403.56,750.1367z"/>
<path fill="#FCD84A" d="M386.14,1066.2567c1.34-2.4199,3.6-0.96,5.44-1.3199C389.93,1066.0768,388.03,1066.1367,386.14,1066.2567z"
	/>
<path fill="#FFFFFF" d="M348.1,1098.2068c2.02,6.6899,2.47,13.3899,0.15,20.09c-0.42,1.23-0.9,2.77-2.64,2.4399
	c-1.33-0.26-1.58-1.62-1.72-2.77c-0.36-2.97-0.64-5.9399-0.96-9.0299c0.38-3.39,0.73-6.86,1.19-10.3201
	c0.16-1.15,0.55-2.4199,2.04-2.38C347.28,1096.2667,347.8,1097.1968,348.1,1098.2068z"/>
<path fill="#FFFFFF" d="M313.9,963.4268c0.16,2.88-0.85,4.95-4.08,5.05c-3.1,0.09-4.54-1.59-4.55-5.02
	c0.17-2.39,0.68-5.28,4.09-5.42C312.71,957.8967,313.74,960.5167,313.9,963.4268z"/>
<path fill="#FCD84A" d="M202.2,1927.4368c12.14-1.1901,24.31-0.27,36.47-0.4301c-2.99,1.17-6.12,0.9501-9.21,0.88
	c-0.47,0.3201-0.97,0.63-1.46,0.9501c-0.67,0-1.33,0-2,0c-0.67-0.8701-1.33-0.8701-2,0c-1.33,0-2.67,0-4,0
	c-0.33-0.4601-0.67-0.4501-1,0c-2.33,0-4.67,0-7,0c-1.83-1.5601-4.08-0.75-6.13-1.0701
	C204.65,1927.6567,203.43,1927.5468,202.2,1927.4368z"/>
<path fill="#FFFFFF" d="M233.99,827.6667c0.46,0.81,1.38,1.72,0.17,2.54c-0.9,0.61-1.76,1.45-3.12,1.08
	c-3.19-0.89-8.28-8-7.99-11.28c0.13-1.55,1.02-2.35,2.4-2.73c1.74,0.34,3.19,1.08,4.09,2.62
	C231.05,822.4667,232.52,825.0667,233.99,827.6667z"/>
<path fill="#FCC429" d="M231,1928.8368c-1,0-2,0-3,0c0.49-0.3201,0.99-0.63,1.46-0.9501
	C229.96,1928.2068,230.48,1928.5167,231,1928.8368z"/>
<path fill="#FCC429" d="M226,1928.8368c-0.67,0-1.33,0-2,0C224.67,1927.9667,225.33,1927.9667,226,1928.8368z"/>
<path fill="#FCC429" d="M220,1928.8368c-0.33,0-0.67,0-1,0C219.33,1928.3867,219.67,1928.3767,220,1928.8368z"/>
<path fill="#FFFFFF" d="M205.41,800.1867c12.49-0.66,10.29-1.9399,10.22,11.82C211.88,807.6768,208.89,804.2067,205.41,800.1867z"/>
<path fill="#FCC429" d="M212,1928.8368c-2.85,0-5.71,0-8.56,0c0.88-0.1101,1.69-0.4701,2.43-1.0701
	C207.92,1928.0868,210.17,1927.2767,212,1928.8368z"/>
<path fill="#FCC429" d="M202,1928.8368c0.48,0,0.96,0,1.44,0C202.98,1928.9067,202.5,1928.9067,202,1928.8368z"/>
<path d="M1154.1799,898.9067c-3.6599-0.09-6.58,0.71-9.51,3.22c-31.21,26.72-65.7899,47.68-105.21,59.92
	c-29.8699,9.28-60.7,13.86-91.6899,17.31c-40.66,4.52-81.45,6-122.27,3.15c-51.04-3.55-101.0801-13.13-150.04-27.88
	c-56.78-17.1-110.2-41.5-158.75-75.87c-23.34-16.52-44.4099-35.62-63.54-56.9c-14.98-16.67-28.0399-34.66-38.8099-54.32
	c-1.73-3.61-3.46-7.22-5.1901-10.84c0.04-1.01-0.2599-1.8799-1.1299-2.4999v-0.0001c-0.16-2.23-2.1901-3.78-2.64-5.59
	c-2.7301-10.97-6.89-21.5-9.41-32.55c-6.11-26.74-5.78-53.8799-6.21-81.05c-0.1201-8.2,2.79-13.1799,9.02-17.24
	c0.5599-0.3599,1.1099-0.73,1.6499-1.1299c19.92-14.6401,64.3801-12.55,80.3501,23.83c8.46,19.2799,14.78,39.26,18.96,59.91
	c0.63,3.08,0.37,6.8899,2.13,9.0599c1.9501,2.41,5.9501,0.6801,9.0399,0.86c2.7001,0.16,3.1301,1,1.92,3.3401
	c-1.67,3.26-3.1801,6.6-4,10.21c-1.3199,5.87-0.85,6.29,5.1,5.8201c12.6001-0.99,23.3701-6.3601,33.7001-13.24
	c12.0299-8,25.5599-10.78,40.5499-10.4102c-1.0499,2.67-1.72,4.9001-2.79,6.92c-1.4199,2.6801-1.1199,4.16,2.1001,4.92
	c6.03,1.4399,8.9199,5.9399,10.5601,11.52c2.3899,8.09,2.74,8.48,10.6199,5.01c7.1201-3.1301,14.2001-5.4,22.1301-4.65
	c4.46,0.42,8.99,0.0399,13.49,0.09c12.83,0.14,24.1499,4,33.5699,13.0901c8.8099,8.4899,19.7101,11.45,31.7001,10.7999
	c3.71-0.2,7.24-1.23,10.1399-3.74c3.41-2.97,6.99-5.72,11.0601-7.67c2.85-1.37,2.08-2.77,0.6699-4.54
	c-2.6199-3.26-5.47-6.26-8.8599-8.75c-7.4901-5.47-16.0901-7.8199-25.0701-9.24c-11.72-1.8599-21.97-6.58-29.6899-15.9199
	c-0.8701-1.0601-2.6702-2.13-1.7201-3.73c0.7101-1.21,2.4401-0.5701,3.7201-0.5801c14.1899-0.05,27.72,3.25,40.97,8.03
	c14.48,5.21,27.6799,12.3201,37.5,24.63c0.72,0.91,0.95,2.49,3,2.4501c0-10.9001,0-21.7101,0-32.51
	c0-1.16,0.1599-2.6301-1.3801-2.8101c-7.01-0.8-11.3099-6.11-16.47-9.89c-26.5-19.4-51.99-40.0699-76.9199-61.4501
	c-26.8201-22.98-51.7-48.1599-79.41-70.1399c-24.86-19.7-50.75-37.87-78.4501-53.3101c-4.1399-2.3099-8.21-6.8-14.3999-4.3199
	c39.49,39.62,83.33,74.0499,123.36,113.87c-7.49,0.9299-13.99,0.14-20.5-0.8101c-20.08-2.9299-35.88-14.8699-52.15-25.4399
	c-16.77-10.88-32.5601-23.26-49.09-34.52c-32.34-22.02-67.9601-32.4399-107.25-29.54c-26.84,1.99-50.12,11.53-68.74,31.3901
	c-11.6801,12.47-19.55,27.3999-26.96,42.5399c-7.99,16.3099-14.4,33.3199-21.03,50.22c-2.8,7.13-8.16,8.54-13.99,3.7001
	c-14.09-11.6801-20.57-27.9401-27.3-44.27c-9.19-22.26-12.59-45.8601-17.37-69.15c-5.41-26.39-8.5-53.2101-14.25-79.5399
	c-1.23-5.6301-3.14-11.2001-3.61-16.8801c-0.91-11.0599-1.99-21.99-6.55-32.25c-0.71-1.6-0.72-3.1899-0.91-4.8199
	c-3.14-26.87-2.27-53.92-3.59-80.87c-2.64-53.77,2.02-107.22,11.19-160.25c7.89-45.64,17.5699-90.92,29.0699-135.79
	c1.46-5.6799,1.53-11.3,1.14-18.1499c-1.27,1.8699-1.96,2.75-2.5,3.7c-14.04,24.7-25.61,50.5-34.26,77.5601
	c-17.08,53.47-24.42,108.75-30.17,164.2999c-0.43,4.14-0.68,8.2999-1.04,12.4501c-0.35,3.97-0.73,7.9399-1.23,13.23
	c-0.99-2.17-1.44-3.03-1.79-3.9301c-6.66-16.9801-11.01-34.5599-13.79-52.5599c-4.07-26.3201-3.22-52.8501-3.28-79.3301
	c-0.04-16.05-0.01-32.1-0.01-47.65c-0.5,0.39-0.57,1.78-0.94,3.02c-4.27,14.2101-7.81,28.6-10.82,43.12
	c-8.0699,39.01-10.17,78.6001-11.1299,118.27c-0.32,13.11-1.88,26.28,0.6899,39.38c3.76,19.2799,7.42,38.5699,11.07,57.87
	c1.88,9.96,0.85,19.9399,0.44,29.99c-3.48-3.21-5.72-6.8401-7.55-10.86c-6.36-14.03-14.94-27.1901-15.81-43.2999
	c-0.24-4.2401-2.6-8.01-6.93-10.8701c-1.22,7.8701-2.55,15.0601-2.48,22.3601c0.2599,26.5199,4.59,52.3599,13.99,77.1899
	c8.65,22.84,15.91,45.97,18.17,70.4199c0.85,9.17,1.77,18.3601,0.83,28.73c-12.69-12.3298-24.6-23.8999-37.05-36
	c-1.31,9.6301,1.11,17.5601,4.25,25.3c9.83,24.24,23.5099,46.3,38.5699,67.55c3.92,5.53,7.83,11.0701,12.1201,17.1399
	c-3.97,0.8201-6.88,0.54-9.63-1.4299c-5.82-4.1899-11.67-8.3101-17.53-12.4399c-4.9-3.46-9.76-6.96-14.75-10.3
	c-3.77-2.52-8.71-2.48-11.93-0.77c-2.45,1.3,1.2,5.3201,1.85,8.2c0.37,1.6101,1.16,3.1201,1.77,4.6702
	c12.02,30.1899,26.09,59.1699,49.31,82.6899c2.27,2.3,4.46,4.6699,7.22,7.5601c-5.25,0.5399-9.57,0.8899-13.78-0.03
	c-16.92-3.6901-33.86-7.3601-50.68-11.48c-4.16-1.02-4.05,0.6499-3.95,3.51c0.06,1.5099,0.6,2.48,1.98,3.1399
	c1.65,0.78,3.2401,1.7,4.83,2.6101c26.63,15.25,53.04,31.0798,84.82,33.1399c1.79,0.1101,2.03,1.12,2.22,2.62
	c1.6299,12.7301-3.34,22.8199-14.59,29.41c-5.99,3.51-5.93,3.5-0.39,8.04c1.8,1.48,3.7,1.3,5.65,1.3c13.67,0.02,27.34,0.2,41-0.1
	c4.52-0.1,7.21,0.91,8.11,5.65c0.46,2.44,1.9,4.73,3.75,6.41c7.59,6.91,7.14,20.97-0.93,29.34c-9.66,10.02-21.22,14.93-35.17,12.5
	c-8.34-1.45-16.81-2.4901-24.81-5.53c-2.64-1-4.72-0.2-6.59,1.95c1.92,1.6,3.59,3.11,5.86,3.68c-0.01-0.01-0.01-0.01-0.02-0.02
	c0.07-0.01,0.13-0.02,0.2-0.02c0.01,0.03,0.01,0.06,0.01,0.09c-0.06-0.01-0.13-0.03-0.19-0.05c1.42,1.73,3.25,2.91,5.31,3.75
	c4.86,4.45,10.94,7.13,16.13,11.85c-8.78,0-17.56,0-26.34,0c1.31,2,2.79,3,4.24,4.04c10.82,7.7,23.4,11.94,35.11,17.89
	c21.19,10.75,32.31,29.45,39.8,50.9c1.89,5.4,4.16,10.45,8.03,14.79c0.61-6.5099,0.46-12.8,0.67-19.0699
	c0.11-3.04-1.65-7.4901,0.98-8.78c2.61-1.28,6.1,1.68,9,3.26c10.84,5.88,15.48,16.48,20.11,26.93c5.52,12.47,8.45,25.92,14.08,38.38
	c3.88,8.57,7.97,17.09,15.85,22.61c4.05,2.84,3.57,4.76,1.15,8.2c-6.5099,9.26-12.84,18.66-18.98,28.17
	c-6.34,9.83-9.84,20.52-8.56,33.7301c6.61-9.88,12.57-18.7901,18.53-27.7001c1.4,8.29,0.47,15.78-2.56,22.96
	c-2.54,6.01-4.53,12.16-5.1,18.7101c-0.18,2.02-0.47,3.9,2.6,4.28c6.34,0.7799,11.12,4.5399,14.8,9.3899
	c2.43,3.2001,3.52,2.3201,5.26-0.34c5.8-8.87,9.87-18.46,12.5099-28.71c3.9901-15.4301,12.88-22.1,28.9-21.8901
	c2.83,0.03,5.31,0.59,6.61,3.48c1.27,2.84-0.91,4.29-2.43,5.96c-5.64,6.2301-9.07,13.26-9.65,21.8601
	c-1.1801,17.49-0.48,34.98-0.71,52.46c-0.07,5.83-0.12,11.66,0.91,17.4399c1.64,9.2101,5.15,17.42,12.19,23.99
	c2.04-2.1699,2.44-4.72,3.47-6.96c0.94-2.02,1.87-2.13,3.08-0.2999c1.59,2.4099,3.16,4.8199,4.97,7.6
	c2.54-3.2101,4.03-6.15,5.2499-9.24c1.77-4.49,3.3901-9.04,5.29-13.4701c0.6001-1.3899,1.02-3.7,2.97-3.48
	c1.47,0.17,1.6001,2.3101,2.0901,3.65c4.6599,12.84,9.25,25.6901,13.8899,38.53c1.5,4.12,4.1201,7.22,8.42,9.1899
	c0.4901-10.13-0.0499-19.77-0.83-29.4c-0.75-9.3199-3.0901-18.36-5.21-27.45c-3.23-13.8199-5.5-27.76-4.42-42.04
	c1.34-2.4199,3.6-0.96,5.4401-1.3199c2.71-0.67,5.4199-1.36,8.1399-2.02c1.6201-0.39,3.27-0.9,4.8401,0.13
	c6.53,4.3101,12.3099,9.41,16.3999,16.17c7.8501,12.98,10.0901,27.76,13.1201,42.21c2.8398,13.53,5.0898,27.16,10.8199,39.92
	c4.1,9.14,10.6901,14.5599,20.83,15.64c3.41,0.36,4.79-0.4,4.8-4.0701c0.02-6.02,0.55-12.1799,3.4299-17.52
	c4.8801-9.08,8.1301-18.58,9.3101-28.7999c0.28-2.42,1.22-2.9301,3.11-1.1801c2.2001,2.03,4.49,3.98,6.6901,6.02
	c36.9399,34.24,70.7799,71.16,99.76,112.55c22.8099,32.58,39.96,67.5199,49.45,106.2c11.03,45,13.01,90.5699,8.78,136.52
	c-5.5601,60.37-23.79,116.6699-55.51,168.36c-26.4501,43.09-58.71,81.62-94.8601,116.86c-41.77,40.73-88.1199,75.39-138.96,104.0599
	c-27.77,15.65-57.24,23.2401-89.33,22.66c-45.82-0.8199-91.66-0.23-137.4901-0.23c-1.36,0-2.8-0.26-4.34,0.8101
	c14.38,9.24,29.5,16.0599,45.26,21.49c8.59,2.96,17.24,5.83,26.37,6.72c12.14-1.1901,24.31-0.27,36.47-0.4301
	c1.32,0.03,2.65,0.16,3.96,0.0601c32.46-2.37,63.84-9.5601,94.1-21.5c26.3201-10.38,51.6101-22.97,76.13-37.0801
	c20.0599-11.5499,39.84-23.71,57.79-38.2799c25.5599-20.76,49.38-43.52,72.22-67.26c32.01-33.28,61.2899-68.8,88.26-106.29
	c29.4301-40.9199,52.2999-84.98,65.9601-133.65c11.6599-41.5299,16.6399-83.88,16.24-126.95
	c-0.3901-40.2-7.4001-79.13-21.3701-116.86c-11.6799-31.55-29.6499-59.6901-47.4199-87.89
	c-20.8101-33.03-44.4301-64.03-69.5801-93.87c-1.1299-1.35-2.74-2.4301-2.97-4.53c5.04-2.4199,10.91-2.52,15.45-6.52
	c2.7001-2.37,7.73-0.22,9.29,3.2301c3.5701,7.8899,6.99,15.84,10.52,23.75c2.79,6.24,8.96,6.87,13.01,1.2699
	c1.05-1.46,1.59-3.2799,2.3999-4.9099c2.2201-4.5,6.8-7.1001,10.9501-5.86c4.14,1.24,8.2999,2.5499,12.2001,4.37
	c11.6199,5.4199,23.1099,11.12,34.6699,16.6799c15.9,7.66,31.92,15.05,47.67,23.01c8.14,4.11,16.37,6.1801,26.39,4.87
	c-2.91-1.59-1.9401-5.4399-4.39-5.9399c-8.5-1.74-14.3099-8.2201-21.86-11.7101c-12.46-5.77-25.0901-11.45-35.6901-20.72
	c-9.17-8.02-18.21-16.11-26.22-25.3099c-1.4701-1.6901-2.61-3.6901-1.7101-5.9301c1.03-2.5699,3.4801-1.34,5.27-1.3
	c24.72,0.53,48.5901,5.61,71.76,14.04c15.3701,5.6,30.96,10.24,47.1301,12.97c27.1499,4.5901,54.51,2.85,81.8099,3.0601
	c0.7999,0.01,1.7699,0.2,2.46-0.79c-15.71-4.15-31.36-8.15-46.9301-12.42c-23.75-6.5199-47.8799-11.7799-70.6199-21.6599
	c-12.52-5.4301-24.6401-11.6901-36.76-17.89c-3.17-1.63-6.8701-3.6901-9.1301-8.21c7.9202,1.08,14.4701,3.8999,21.1501,6.22
	c13.3999,4.64,26.09,10.98,39.22,16.27c13.75,5.5399,28.0699,8.38,42.9299,8.09c3.6101-0.0701,8.41,0.59,10.23-2.64
	c2.73-4.8199,6.6301-3.9399,10.5601-4.1801c39.4-2.3999,78.9099-3.5,117.96-9.96c13.0901-2.16,26.1101-4.71,38.8801-8.79
	c-51.5-0.96-102.4202-6.4299-152.76-17.3999c1.5798-0.88,3.1399-1.2001,4.71-1.36c29.01-2.8501,58.03-5.66,87.04-8.53
	c6.8699-0.6801,14.0699-0.3101,19.6499-5.67c0.79-0.75,2.0801-1.03,3.1899-1.36c12.4501-3.6801,24.9301-7.28,37.3701-10.9901
	c13.7-4.09,27.74-7.25,40.3099-14.52c28.28-16.32,56.4601-32.84,83.2201-51.59c13.49-9.45,27.1199-18.83,37.9299-31.54
	c2.62-3.08,4.63-6.52,5.75-10.43C1157.71,900.1267,1157.04,898.9767,1154.1799,898.9067z M680.47,663.3568
	c1.76,0.11,6.7201-0.75,6.03,1.28c3.6899,5.4091-0.4927,9.651-6.99,6.71c-2.0999-0.9504-7.34-2.3101-7.26-4.64
	C672.33,663.9467,678.1799,663.2267,680.47,663.3568z M215.63,812.0067c-3.75-4.33-6.74-7.8-10.22-11.82
	C217.9,799.5267,215.7,798.2467,215.63,812.0067z M234.16,830.2067c-0.9,0.61-1.7599,1.45-3.12,1.08c-3.19-0.89-8.28-8-7.99-11.28
	c0.13-1.55,1.02-2.35,2.4-2.73c1.74,0.34,3.19,1.08,4.09,2.62c1.51,2.57,2.98,5.17,4.45,7.77
	C234.45,828.4767,235.37,829.3867,234.16,830.2067z M309.82,968.4767c-3.1,0.09-4.54-1.59-4.55-5.02c0.17-2.39,0.68-5.28,4.09-5.42
	c3.35-0.14,4.38,2.48,4.54,5.39C314.06,966.3067,313.05,968.3767,309.82,968.4767z M348.25,1118.2968
	c-0.42,1.23-0.9,2.77-2.64,2.4401c-1.33-0.26-1.58-1.62-1.72-2.77c-0.36-2.9701-0.64-5.9401-0.96-9.03
	c0.38-3.39,0.73-6.86,1.19-10.3199c0.16-1.15,0.55-2.42,2.04-2.38c1.1201,0.0299,1.64,0.96,1.94,1.97
	C350.12,1104.8967,350.57,1111.5968,348.25,1118.2968z M476.88,1120.1467c-3.26,0.01-4.2999-1.95-4.4-4.9399
	c0.46-2.52,0.79-5.47,4.4-5.4301c3.5299,0.04,4.17,2.77,4.3099,5.5801C481.3201,1118.2767,480.12,1120.1467,476.88,1120.1467z
	 M569.61,1070.8068c-3.74,14.1-4.0699,14.17-14.1801,4.26c-5.27-5.17-10.6599-10.22-16.22-15.54
	c4.39-2.9099,8.39-7.21,13.5801-5.9099c6.7,1.6799,12.01,6.3099,16.6199,11.49C571.02,1066.9167,570.1,1068.9368,569.61,1070.8068z"
	/>
<path fill="#FCD84A" d="M148.91,801.0468c0.01,0.03,0.01,0.06,0.01,0.09l-0.21-0.07
	C148.78,801.0568,148.84,801.0468,148.91,801.0468z"/>
<path fill="#FCD84A" d="M148.92,801.1367c-0.06-0.01-0.13-0.03-0.19-0.05c-0.01-0.01-0.01-0.01-0.02-0.02L148.92,801.1367z"/>
</svg>
