<?xml version="1.0" standalone="no"?>
<!DOCTYPE svg PUBLIC "-//W3C//DTD SVG 1.1//EN" "http://www.w3.org/Graphics/SVG/1.1/DTD/svg11.dtd">
<svg width="100%" height="100%" viewBox="0 0 1235 1936" version="1.1" xmlns="http://www.w3.org/2000/svg" xmlns:xlink="http://www.w3.org/1999/xlink" xml:space="preserve" style="fill-rule:evenodd;clip-rule:evenodd;stroke-linecap:round;stroke-linejoin:round;stroke-miterlimit:1.41421;">
    <path d="M569.41,1065.11C571.02,1066.92 570.1,1068.94 569.61,1070.81C565.87,1084.91 565.54,1084.98 555.43,1075.07C550.16,1069.9 544.77,1064.85 539.21,1059.53C543.6,1056.62 547.6,1052.32 552.79,1053.62C559.49,1055.3 564.8,1059.93 569.41,1065.11Z" style="fill:white;fill-rule:nonzero;"/>
    <path d="M481.19,1115.36C481.32,1118.28 480.12,1120.15 476.88,1120.15C473.62,1120.16 472.58,1118.2 472.48,1115.21C472.94,1112.69 473.27,1109.74 476.88,1109.78C480.41,1109.82 481.05,1112.55 481.19,1115.36Z" style="fill:white;fill-rule:nonzero;"/>
    <path d="M403.61,750.587C403.61,750.617 403.61,750.647 403.61,750.687C403.54,751.097 403.41,751.447 403.21,751.727C403.41,751.447 403.54,751.097 403.6,750.687C403.6,750.657 403.6,750.617 403.61,750.587Z" style="fill:rgb(252,196,41);fill-rule:nonzero;"/>
    <path d="M403.56,750.137C403.55,750.057 403.53,749.987 403.5,749.927C403.53,749.997 403.55,750.067 403.56,750.137Z" style="fill:rgb(252,196,41);fill-rule:nonzero;"/>
    <path d="M386.14,1066.26C387.48,1063.84 389.74,1065.3 391.58,1064.94C389.93,1066.08 388.03,1066.14 386.14,1066.26Z" style="fill:rgb(252,216,74);fill-rule:nonzero;"/>
    <path d="M348.1,1098.21C350.12,1104.9 350.57,1111.6 348.25,1118.3C347.83,1119.53 347.35,1121.07 345.61,1120.74C344.28,1120.48 344.03,1119.12 343.89,1117.97C343.53,1115 343.25,1112.03 342.93,1108.94C343.31,1105.55 343.66,1102.08 344.12,1098.62C344.28,1097.47 344.67,1096.2 346.16,1096.24C347.28,1096.27 347.8,1097.2 348.1,1098.21Z" style="fill:white;fill-rule:nonzero;"/>
    <path d="M313.9,963.427C314.06,966.307 313.05,968.377 309.82,968.477C306.72,968.567 305.28,966.887 305.27,963.457C305.44,961.067 305.95,958.177 309.36,958.037C312.71,957.897 313.74,960.517 313.9,963.427Z" style="fill:white;fill-rule:nonzero;"/>
    <path d="M202.2,1927.44C214.34,1926.25 226.51,1927.17 238.67,1927.01C235.68,1928.18 232.55,1927.96 229.46,1927.89C228.99,1928.21 228.49,1928.52 228,1928.84C227.33,1928.84 226.67,1928.84 226,1928.84C225.33,1927.97 224.67,1927.97 224,1928.84C222.67,1928.84 221.33,1928.84 220,1928.84C219.67,1928.38 219.33,1928.39 219,1928.84C216.67,1928.84 214.33,1928.84 212,1928.84C210.17,1927.28 207.92,1928.09 205.87,1927.77C204.65,1927.66 203.43,1927.55 202.2,1927.44Z" style="fill:rgb(252,216,74);fill-rule:nonzero;"/>
    <path d="M233.99,827.667C234.45,828.477 235.37,829.387 234.16,830.207C233.26,830.817 232.4,831.657 231.04,831.287C227.85,830.397 222.76,823.287 223.05,820.007C223.18,818.457 224.07,817.657 225.45,817.277C227.19,817.617 228.64,818.357 229.54,819.897C231.05,822.467 232.52,825.067 233.99,827.667Z" style="fill:white;fill-rule:nonzero;"/>
    <path d="M231,1928.84C230,1928.84 229,1928.84 228,1928.84C228.49,1928.52 228.99,1928.21 229.46,1927.89C229.96,1928.21 230.48,1928.52 231,1928.84Z" style="fill:rgb(252,196,41);fill-rule:nonzero;"/>
    <path d="M226,1928.84C225.33,1928.84 224.67,1928.84 224,1928.84C224.67,1927.97 225.33,1927.97 226,1928.84Z" style="fill:rgb(252,196,41);fill-rule:nonzero;"/>
    <path d="M220,1928.84C219.67,1928.84 219.33,1928.84 219,1928.84C219.33,1928.39 219.67,1928.38 220,1928.84Z" style="fill:rgb(252,196,41);fill-rule:nonzero;"/>
    <path d="M205.41,800.187C217.9,799.527 215.7,798.247 215.63,812.007C211.88,807.677 208.89,804.207 205.41,800.187Z" style="fill:white;fill-rule:nonzero;"/>
    <path d="M212,1928.84C209.15,1928.84 206.29,1928.84 203.44,1928.84C204.32,1928.73 205.13,1928.37 205.87,1927.77C207.92,1928.09 210.17,1927.28 212,1928.84Z" style="fill:rgb(252,196,41);fill-rule:nonzero;"/>
    <path d="M202,1928.84C202.48,1928.84 202.96,1928.84 203.44,1928.84C202.98,1928.91 202.5,1928.91 202,1928.84Z" style="fill:rgb(252,196,41);fill-rule:nonzero;"/>
    <path d="M1154.18,898.907C1150.52,898.817 1147.6,899.617 1144.67,902.127C1113.46,928.847 1078.88,949.807 1039.46,962.047C1009.59,971.327 978.76,975.907 947.77,979.357C907.11,983.877 866.32,985.357 825.5,982.507C774.46,978.957 724.42,969.377 675.46,954.627C618.68,937.527 565.26,913.127 516.71,878.757C493.37,862.237 472.3,843.137 453.17,821.857C438.19,805.187 425.13,787.197 414.36,767.537C412.63,763.927 410.9,760.317 409.17,756.697C409.21,755.687 408.91,754.817 408.04,754.197L408.04,754.197C407.88,751.967 405.85,750.417 405.4,748.607C402.67,737.637 398.51,727.107 395.99,716.057C389.88,689.317 390.21,662.177 389.78,635.007C389.66,626.807 392.57,621.827 398.8,617.767C399.36,617.407 399.91,617.037 400.45,616.637C420.37,601.997 464.83,604.087 480.8,640.467C489.26,659.747 495.58,679.727 499.76,700.377C500.39,703.457 500.13,707.267 501.89,709.437C503.84,711.847 507.84,710.117 510.93,710.297C513.63,710.457 514.06,711.297 512.85,713.637C511.18,716.897 509.67,720.237 508.85,723.847C507.53,729.717 508,730.137 513.95,729.667C526.55,728.677 537.32,723.307 547.65,716.427C559.68,708.427 573.21,705.647 588.2,706.017C587.15,708.687 586.48,710.917 585.41,712.937C583.99,715.617 584.29,717.097 587.51,717.857C593.54,719.297 596.43,723.797 598.07,729.377C600.46,737.467 600.81,737.857 608.69,734.387C615.81,731.257 622.89,728.987 630.82,729.737C635.28,730.157 639.81,729.777 644.31,729.827C657.14,729.967 668.46,733.827 677.88,742.917C686.69,751.407 697.59,754.367 709.58,753.717C713.29,753.517 716.82,752.487 719.72,749.977C723.13,747.007 726.71,744.257 730.78,742.307C733.63,740.937 732.86,739.537 731.45,737.767C728.83,734.507 725.98,731.507 722.59,729.017C715.1,723.547 706.5,721.197 697.52,719.777C685.8,717.917 675.55,713.197 667.83,703.857C666.96,702.797 665.16,701.727 666.11,700.127C666.82,698.917 668.55,699.557 669.83,699.547C684.02,699.497 697.55,702.797 710.8,707.577C725.28,712.787 738.48,719.897 748.3,732.207C749.02,733.117 749.25,734.697 751.3,734.657C751.3,723.757 751.3,712.947 751.3,702.147C751.3,700.987 751.46,699.517 749.92,699.337C742.91,698.537 738.61,693.227 733.45,689.447C706.95,670.047 681.46,649.377 656.53,627.997C629.71,605.017 604.83,579.837 577.12,557.857C552.26,538.157 526.37,519.987 498.67,504.547C494.53,502.237 490.46,497.747 484.27,500.227C523.76,539.847 567.6,574.277 607.63,614.097C600.14,615.027 593.64,614.237 587.13,613.287C567.05,610.357 551.25,598.417 534.98,587.847C518.21,576.967 502.42,564.587 485.89,553.327C453.55,531.307 417.93,520.887 378.64,523.787C351.8,525.777 328.52,535.317 309.9,555.177C298.22,567.647 290.35,582.577 282.94,597.717C274.95,614.027 268.54,631.037 261.91,647.937C259.11,655.067 253.75,656.477 247.92,651.637C233.83,639.957 227.35,623.697 220.62,607.367C211.43,585.107 208.03,561.507 203.25,538.217C197.84,511.827 194.75,485.007 189,458.677C187.77,453.047 185.86,447.477 185.39,441.797C184.48,430.737 183.4,419.807 178.84,409.547C178.13,407.947 178.12,406.357 177.93,404.727C174.79,377.857 175.66,350.807 174.34,323.857C171.7,270.087 176.36,216.637 185.53,163.607C193.42,117.967 203.1,72.687 214.6,27.817C216.06,22.137 216.13,16.517 215.74,9.667C214.47,11.537 213.78,12.417 213.24,13.367C199.2,38.067 187.63,63.867 178.98,90.927C161.9,144.397 154.56,199.677 148.81,255.227C148.38,259.367 148.13,263.527 147.77,267.677C147.42,271.647 147.04,275.617 146.54,280.907C145.55,278.737 145.1,277.877 144.75,276.977C138.09,259.997 133.74,242.417 130.96,224.417C126.89,198.097 127.74,171.567 127.68,145.087C127.64,129.037 127.67,112.987 127.67,97.437C127.17,97.827 127.1,99.217 126.73,100.457C122.46,114.667 118.92,129.057 115.91,143.577C107.84,182.587 105.74,222.177 104.78,261.847C104.46,274.957 102.9,288.127 105.47,301.227C109.23,320.507 112.89,339.797 116.54,359.097C118.42,369.057 117.39,379.037 116.98,389.087C113.5,385.877 111.26,382.247 109.43,378.227C103.07,364.197 94.49,351.037 93.62,334.927C93.38,330.687 91.02,326.917 86.69,324.057C85.47,331.927 84.14,339.117 84.21,346.417C84.47,372.937 88.8,398.777 98.2,423.607C106.85,446.447 114.11,469.577 116.37,494.027C117.22,503.197 118.14,512.387 117.2,522.757C104.51,510.427 92.6,498.857 80.15,486.757C78.84,496.387 81.26,504.317 84.4,512.057C94.23,536.297 107.91,558.357 122.97,579.607C126.89,585.137 130.8,590.677 135.09,596.747C131.12,597.567 128.21,597.287 125.46,595.317C119.64,591.127 113.79,587.007 107.93,582.877C103.03,579.417 98.17,575.917 93.18,572.577C89.41,570.057 84.47,570.097 81.25,571.807C78.8,573.107 82.45,577.127 83.1,580.007C83.47,581.617 84.26,583.127 84.87,584.677C96.89,614.867 110.96,643.847 134.18,667.367C136.45,669.667 138.64,672.037 141.4,674.927C136.15,675.467 131.83,675.817 127.62,674.897C110.7,671.207 93.76,667.537 76.94,663.417C72.78,662.397 72.89,664.067 72.99,666.927C73.05,668.437 73.59,669.407 74.97,670.067C76.62,670.847 78.21,671.767 79.8,672.677C106.43,687.927 132.84,703.757 164.62,705.817C166.41,705.927 166.65,706.937 166.84,708.437C168.47,721.167 163.5,731.257 152.25,737.847C146.26,741.357 146.32,741.347 151.86,745.887C153.66,747.367 155.56,747.187 157.51,747.187C171.18,747.207 184.85,747.387 198.51,747.087C203.03,746.987 205.72,747.997 206.62,752.737C207.08,755.177 208.52,757.467 210.37,759.147C217.96,766.057 217.51,780.117 209.44,788.487C199.78,798.507 188.22,803.417 174.27,800.987C165.93,799.537 157.46,798.497 149.46,795.457C146.82,794.457 144.74,795.257 142.87,797.407C144.79,799.007 146.46,800.517 148.73,801.087C148.72,801.077 148.72,801.077 148.71,801.067C148.78,801.057 148.84,801.047 148.91,801.047C148.92,801.077 148.92,801.107 148.92,801.137C148.86,801.127 148.79,801.107 148.73,801.087C150.15,802.817 151.98,803.997 154.04,804.837C158.9,809.287 164.98,811.967 170.17,816.687C161.39,816.687 152.61,816.687 143.83,816.687C145.14,818.687 146.62,819.687 148.07,820.727C158.89,828.427 171.47,832.667 183.18,838.617C204.37,849.367 215.49,868.067 222.98,889.517C224.87,894.917 227.14,899.967 231.01,904.307C231.62,897.797 231.47,891.507 231.68,885.237C231.79,882.197 230.03,877.747 232.66,876.457C235.27,875.177 238.76,878.137 241.66,879.717C252.5,885.597 257.14,896.197 261.77,906.647C267.29,919.117 270.22,932.567 275.85,945.027C279.73,953.597 283.82,962.117 291.7,967.637C295.75,970.477 295.27,972.397 292.85,975.837C286.34,985.097 280.01,994.497 273.87,1004.01C267.53,1013.84 264.03,1024.53 265.31,1037.74C271.92,1027.86 277.88,1018.95 283.84,1010.04C285.24,1018.33 284.31,1025.82 281.28,1033C278.74,1039.01 276.75,1045.16 276.18,1051.71C276,1053.73 275.71,1055.61 278.78,1055.99C285.12,1056.77 289.9,1060.53 293.58,1065.38C296.01,1068.58 297.1,1067.7 298.84,1065.04C304.64,1056.17 308.71,1046.58 311.35,1036.33C315.34,1020.9 324.23,1014.23 340.25,1014.44C343.08,1014.47 345.56,1015.03 346.86,1017.92C348.13,1020.76 345.95,1022.21 344.43,1023.88C338.79,1030.11 335.36,1037.14 334.78,1045.74C333.6,1063.23 334.3,1080.72 334.07,1098.2C334,1104.03 333.95,1109.86 334.98,1115.64C336.62,1124.85 340.13,1133.06 347.17,1139.63C349.21,1137.46 349.61,1134.91 350.64,1132.67C351.58,1130.65 352.51,1130.54 353.72,1132.37C355.31,1134.78 356.88,1137.19 358.69,1139.97C361.23,1136.76 362.72,1133.82 363.94,1130.73C365.71,1126.24 367.33,1121.69 369.23,1117.26C369.83,1115.87 370.25,1113.56 372.2,1113.78C373.67,1113.95 373.8,1116.09 374.29,1117.43C378.95,1130.27 383.54,1143.12 388.18,1155.96C389.68,1160.08 392.3,1163.18 396.6,1165.15C397.09,1155.02 396.55,1145.38 395.77,1135.75C395.02,1126.43 392.68,1117.39 390.56,1108.3C387.33,1094.48 385.06,1080.54 386.14,1066.26C387.48,1063.84 389.74,1065.3 391.58,1064.94C394.29,1064.27 397,1063.58 399.72,1062.92C401.34,1062.53 402.99,1062.02 404.56,1063.05C411.09,1067.36 416.87,1072.46 420.96,1079.22C428.81,1092.2 431.05,1106.98 434.08,1121.43C436.92,1134.96 439.17,1148.59 444.9,1161.35C449,1170.49 455.59,1175.91 465.73,1176.99C469.14,1177.35 470.52,1176.59 470.53,1172.92C470.55,1166.9 471.08,1160.74 473.96,1155.4C478.84,1146.32 482.09,1136.82 483.27,1126.6C483.55,1124.18 484.49,1123.67 486.38,1125.42C488.58,1127.45 490.87,1129.4 493.07,1131.44C530.01,1165.68 563.85,1202.6 592.83,1243.99C615.64,1276.57 632.79,1311.51 642.28,1350.19C653.31,1395.19 655.29,1440.76 651.06,1486.71C645.5,1547.08 627.27,1603.38 595.55,1655.07C569.1,1698.16 536.84,1736.69 500.69,1771.93C458.92,1812.66 412.57,1847.32 361.73,1875.99C333.96,1891.64 304.49,1899.23 272.4,1898.65C226.58,1897.83 180.74,1898.42 134.91,1898.42C133.55,1898.42 132.11,1898.16 130.57,1899.23C144.95,1908.47 160.07,1915.29 175.83,1920.72C184.42,1923.68 193.07,1926.55 202.2,1927.44C214.34,1926.25 226.51,1927.17 238.67,1927.01C239.99,1927.04 241.32,1927.17 242.63,1927.07C275.09,1924.7 306.47,1917.51 336.73,1905.57C363.05,1895.19 388.34,1882.6 412.86,1868.49C432.92,1856.94 452.7,1844.78 470.65,1830.21C496.21,1809.45 520.03,1786.69 542.87,1762.95C574.88,1729.67 604.16,1694.15 631.13,1656.66C660.56,1615.74 683.43,1571.68 697.09,1523.01C708.75,1481.48 713.73,1439.13 713.33,1396.06C712.94,1355.86 705.93,1316.93 691.96,1279.2C680.28,1247.65 662.31,1219.51 644.54,1191.31C623.73,1158.28 600.11,1127.28 574.96,1097.44C573.83,1096.09 572.22,1095.01 571.99,1092.91C577.03,1090.49 582.9,1090.39 587.44,1086.39C590.14,1084.02 595.17,1086.17 596.73,1089.62C600.3,1097.51 603.72,1105.46 607.25,1113.37C610.04,1119.61 616.21,1120.24 620.26,1114.64C621.31,1113.18 621.85,1111.36 622.66,1109.73C624.88,1105.23 629.46,1102.63 633.61,1103.87C637.75,1105.11 641.91,1106.42 645.81,1108.24C657.43,1113.66 668.92,1119.36 680.48,1124.92C696.38,1132.58 712.4,1139.97 728.15,1147.93C736.29,1152.04 744.52,1154.11 754.54,1152.8C751.63,1151.21 752.6,1147.36 750.15,1146.86C741.65,1145.12 735.84,1138.64 728.29,1135.15C715.83,1129.38 703.2,1123.7 692.6,1114.43C683.43,1106.41 674.39,1098.32 666.38,1089.12C664.91,1087.43 663.77,1085.43 664.67,1083.19C665.7,1080.62 668.15,1081.85 669.94,1081.89C694.66,1082.42 718.53,1087.5 741.7,1095.93C757.07,1101.53 772.66,1106.17 788.83,1108.9C815.98,1113.49 843.34,1111.75 870.64,1111.96C871.44,1111.97 872.41,1112.16 873.1,1111.17C857.39,1107.02 841.74,1103.02 826.17,1098.75C802.42,1092.23 778.29,1086.97 755.55,1077.09C743.03,1071.66 730.91,1065.4 718.79,1059.2C715.62,1057.57 711.92,1055.51 709.66,1050.99C717.58,1052.07 724.13,1054.89 730.81,1057.21C744.209,1061.85 756.9,1068.19 770.03,1073.48C783.78,1079.02 798.099,1081.86 812.959,1081.57C816.57,1081.5 821.369,1082.16 823.19,1078.93C825.92,1074.11 829.82,1074.99 833.75,1074.75C873.15,1072.35 912.66,1071.25 951.71,1064.79C964.8,1062.63 977.82,1060.08 990.59,1056C939.09,1055.04 888.17,1049.57 837.83,1038.6C839.41,1037.72 840.97,1037.4 842.54,1037.24C871.55,1034.39 900.57,1031.58 929.58,1028.71C936.45,1028.03 943.65,1028.4 949.23,1023.04C950.02,1022.29 951.31,1022.01 952.42,1021.68C964.87,1018 977.35,1014.4 989.79,1010.69C1003.49,1006.6 1017.53,1003.44 1030.1,996.167C1058.38,979.847 1086.56,963.327 1113.32,944.577C1126.81,935.127 1140.44,925.747 1151.25,913.037C1153.87,909.957 1155.88,906.517 1157,902.607C1157.71,900.127 1157.04,898.977 1154.18,898.907ZM680.47,663.357C682.23,663.467 687.19,662.607 686.5,664.637C690.19,670.046 686.007,674.288 679.51,671.347C677.41,670.396 672.17,669.037 672.25,666.707C672.33,663.947 678.18,663.227 680.47,663.357ZM215.63,812.007C211.88,807.677 208.89,804.207 205.41,800.187C217.9,799.527 215.7,798.247 215.63,812.007ZM234.16,830.207C233.26,830.817 232.4,831.657 231.04,831.287C227.85,830.397 222.76,823.287 223.05,820.007C223.18,818.457 224.07,817.657 225.45,817.277C227.19,817.617 228.64,818.357 229.54,819.897C231.05,822.467 232.52,825.067 233.99,827.667C234.45,828.477 235.37,829.387 234.16,830.207ZM309.82,968.477C306.72,968.567 305.28,966.887 305.27,963.457C305.44,961.067 305.95,958.177 309.36,958.037C312.71,957.897 313.74,960.517 313.9,963.427C314.06,966.307 313.05,968.377 309.82,968.477ZM348.25,1118.3C347.83,1119.53 347.35,1121.07 345.61,1120.74C344.28,1120.48 344.03,1119.12 343.89,1117.97C343.53,1115 343.25,1112.03 342.93,1108.94C343.31,1105.55 343.66,1102.08 344.12,1098.62C344.28,1097.47 344.67,1096.2 346.16,1096.24C347.28,1096.27 347.8,1097.2 348.1,1098.21C350.12,1104.9 350.57,1111.6 348.25,1118.3ZM476.88,1120.15C473.62,1120.16 472.58,1118.2 472.48,1115.21C472.94,1112.69 473.27,1109.74 476.88,1109.78C480.41,1109.82 481.05,1112.55 481.19,1115.36C481.32,1118.28 480.12,1120.15 476.88,1120.15ZM569.61,1070.81C565.87,1084.91 565.54,1084.98 555.43,1075.07C550.16,1069.9 544.77,1064.85 539.21,1059.53C543.6,1056.62 547.6,1052.32 552.79,1053.62C559.49,1055.3 564.8,1059.93 569.41,1065.11C571.02,1066.92 570.1,1068.94 569.61,1070.81Z" style="fill:black;fill-rule:nonzero;"/>
    <path d="M148.91,801.047C148.92,801.077 148.92,801.107 148.92,801.137L148.71,801.067C148.78,801.057 148.84,801.047 148.91,801.047Z" style="fill:rgb(252,216,74);fill-rule:nonzero;"/>
    <path d="M148.92,801.137C148.86,801.127 148.79,801.107 148.73,801.087C148.72,801.077 148.72,801.077 148.71,801.067L148.92,801.137Z" style="fill:rgb(252,216,74);fill-rule:nonzero;"/>
    <g transform="matrix(25.8821,0,0,-25.8821,388.464,1569.16)">
        <path d="M0,0L-0.242,1.494L1.236,2.36C1.307,2.398 1.361,2.461 1.385,2.542C1.432,2.704 1.34,2.874 1.178,2.922C1.092,2.947 1.002,2.934 0.93,2.889L-1.178,1.65C-1.252,1.611 -1.316,1.558 -1.371,1.493L-2.26,0.299L-3.484,0.445C-3.563,0.418 -3.629,0.36 -3.664,0.279C-3.732,0.124 -3.66,-0.057 -3.506,-0.123C-3.441,-0.152 -3.371,-0.156 -3.307,-0.139L-2.061,-0.279C-2.016,-0.262 -1.975,-0.234 -1.941,-0.197L-1.436,0.438L-1.193,-0.934C-1.148,-1.127 -1.02,-1.296 -0.836,-1.388L0.25,-1.713L0.41,-2.961C0.43,-3.102 0.527,-3.227 0.67,-3.277C0.877,-3.351 1.104,-3.242 1.176,-3.035C1.199,-2.972 1.203,-2.904 1.193,-2.842L0.998,-1.314C0.975,-1.203 0.904,-1.103 0.801,-1.045L0.125,-0.842L1.244,-0.164L2.611,-0.77L2.637,-0.78C2.844,-0.854 3.07,-0.745 3.143,-0.539C3.211,-0.344 3.119,-0.132 2.936,-0.047L1.377,0.648L1.355,0.656C1.244,0.695 1.125,0.682 1.029,0.629L0,0L0,0Z" style="fill:rgb(35,31,32);fill-rule:nonzero;"/>
    </g>
    <g transform="matrix(25.8821,0,0,-25.8821,357.51,1506.51)">
        <path d="M0,0C0.102,0.338 -0.088,0.694 -0.426,0.797C-0.764,0.9 -1.119,0.711 -1.223,0.373C-1.327,0.035 -1.135,-0.32 -0.799,-0.424C-0.463,-0.528 -0.104,-0.338 0,0" style="fill:rgb(35,31,32);fill-rule:nonzero;"/>
    </g>
    <g transform="matrix(1,0,0,1,-21.8854,-2.72396)">
        <path d="M325.137,1357.4C325.137,1383.99 328.609,1410.06 328.609,1436.88" style="fill:none;stroke-width:4px;stroke:black;"/>
    </g>
    <g transform="matrix(1,0,0,1,9.16667,9.66667)">
        <path d="M325.137,1357.4C325.137,1383.99 328.609,1410.06 328.609,1436.88" style="fill:none;stroke-width:4px;stroke:black;"/>
    </g>
    <g transform="matrix(1,0,0,1,37.2617,-18.5208)">
        <path d="M325.137,1357.4C325.137,1383.99 328.609,1410.06 328.609,1436.88" style="fill:none;stroke-width:4px;stroke:black;"/>
    </g>
</svg>
